<svg width="68" height="68" fill="none" xmlns="http://www.w3.org/2000/svg"><g filter="url(#filter0_d)"><circle cx="34" cy="32" r="30" fill="#fff"/></g><mask id="a" maskUnits="userSpaceOnUse" x="4" y="2" width="60" height="60"><path fill="#C4C4C4" d="M4 2h60v60H4z"/></mask><g mask="url(#a)"><path d="M41.01 21H27.446C21.164 21 16 26.101 16 32.447c0 3.608 1.742 7.03 4.604 9.145-.374.747-.81 1.369-1.182 1.929-.685.995-.747 2.24-.063 3.235.56.809 1.37 1.244 2.302 1.244.25 0 .498-.062.747-.124 3.546-.934 6.78-2.675 9.02-3.982h9.643c6.284 0 11.447-5.101 11.447-11.447C52.518 26.101 47.355 21 41.01 21z" fill="#000"/><path d="M26 35a2 2 0 100-4 2 2 0 000 4zm8 0a2 2 0 100-4 2 2 0 000 4zm8 0a2 2 0 100-4 2 2 0 000 4z" fill="#fff"/></g><defs><filter id="filter0_d" x="0" y="0" width="68" height="68" filterUnits="userSpaceOnUse" color-interpolation-filters="sRGB"><feFlood flood-opacity="0" result="BackgroundImageFix"/><feColorMatrix in="SourceAlpha" values="0 0 0 0 0 0 0 0 0 0 0 0 0 0 0 0 0 0 127 0"/><feOffset dy="2"/><feGaussianBlur stdDeviation="2"/><feColorMatrix values="0 0 0 0 0 0 0 0 0 0 0 0 0 0 0 0 0 0 0.25 0"/><feBlend in2="BackgroundImageFix" result="effect1_dropShadow"/><feBlend in="SourceGraphic" in2="effect1_dropShadow" result="shape"/></filter></defs></svg>