<svg width="68" height="68" fill="none" xmlns="http://www.w3.org/2000/svg"><g filter="url(#filter0_d)"><circle cx="34" cy="32" r="30" fill="#000"/></g><mask id="a" maskUnits="userSpaceOnUse" x="4" y="2" width="60" height="60"><path fill="#C4C4C4" d="M4 2h60v60H4z"/></mask><g mask="url(#a)" fill="#fff"><path d="M40.156 41.3l-3.603-2.848a3.769 3.769 0 00-2.387-.837c-1.131 0-2.22.502-2.933 1.34-.46.544-.754.88-.921 1.09-.629-.043-2.053-.671-3.56-2.18-1.592-1.59-2.137-3.015-2.179-3.56.168-.167.545-.46 1.09-.921 1.59-1.34 1.8-3.686.502-5.32l-2.849-3.602c-.754-.922-1.843-1.467-3.016-1.467-.544 0-1.047.126-1.55.335-1.089.461-2.387 1.299-3.1 2.053-1.088 1.09-2.638 3.644-.795 8.587 1.173 3.1 3.435 6.493 6.409 9.425 4.44 4.44 9.676 7.205 13.614 7.205 1.8 0 3.309-.587 4.356-1.634.712-.712 1.55-2.01 2.053-3.1.712-1.633.25-3.476-1.131-4.565zm-.754 3.729c-.42.963-1.131 2.01-1.592 2.471-.712.712-1.718 1.047-2.89 1.047-3.268 0-8.001-2.471-12.19-6.66-5.697-5.739-8.252-12.483-5.613-15.08.46-.46 1.466-1.173 2.471-1.591.21-.084.461-.126.712-.126.545 0 1.048.251 1.383.67l2.848 3.602c.587.755.46 1.802-.251 2.43a27.026 27.026 0 00-1.383 1.215c-1.089 1.089-.041 3.937 2.346 6.367 1.76 1.76 3.77 2.806 5.11 2.806.503 0 .922-.125 1.215-.419.126-.125.587-.628 1.215-1.382a1.706 1.706 0 011.34-.628c.378 0 .755.126 1.09.377l3.602 2.848c.67.461.88 1.299.587 2.053z"/><path d="M46.062 16H36.93c-4.23 0-7.707 3.435-7.707 7.707a7.697 7.697 0 003.1 6.158c-.252.503-.545.922-.797 1.299-.46.67-.502 1.508-.041 2.178.377.544.921.838 1.55.838.167 0 .335-.042.502-.084 2.388-.628 4.566-1.801 6.074-2.681h6.493c4.23 0 7.707-3.435 7.707-7.707 0-4.273-3.477-7.708-7.75-7.708zm0 13.279h-6.786a.842.842 0 00-.545.167c-1.047.629-3.016 1.76-5.194 2.43.377-.587.754-1.215 1.09-1.969.25-.503.041-1.09-.42-1.382a5.616 5.616 0 01-2.848-4.901c0-3.1 2.513-5.613 5.613-5.613h9.132c3.1 0 5.613 2.513 5.613 5.613 0 3.1-2.555 5.655-5.655 5.655z"/><path d="M36.218 25.425a1.717 1.717 0 100-3.435 1.717 1.717 0 000 3.435zm5.278 0a1.717 1.717 0 100-3.435 1.717 1.717 0 000 3.435zm5.32 0a1.717 1.717 0 100-3.435 1.717 1.717 0 000 3.435z"/></g><defs><filter id="filter0_d" x="0" y="0" width="68" height="68" filterUnits="userSpaceOnUse" color-interpolation-filters="sRGB"><feFlood flood-opacity="0" result="BackgroundImageFix"/><feColorMatrix in="SourceAlpha" values="0 0 0 0 0 0 0 0 0 0 0 0 0 0 0 0 0 0 127 0"/><feOffset dy="2"/><feGaussianBlur stdDeviation="2"/><feColorMatrix values="0 0 0 0 0 0 0 0 0 0 0 0 0 0 0 0 0 0 0.25 0"/><feBlend in2="BackgroundImageFix" result="effect1_dropShadow"/><feBlend in="SourceGraphic" in2="effect1_dropShadow" result="shape"/></filter></defs></svg>