<svg width="50" height="50" fill="none" xmlns="http://www.w3.org/2000/svg"><rect width="50" height="50" rx="25" fill="#0DC143"/><path d="M36.199 13.762c-2.68-2.759-6.385-4.257-10.17-4.257-8.04 0-14.504 6.543-14.425 14.505 0 2.522.71 4.966 1.892 7.173l-2.05 7.489 7.647-1.97c2.128 1.182 4.493 1.733 6.858 1.733 7.962 0 14.426-6.542 14.426-14.504 0-3.863-1.498-7.489-4.178-10.169zm-10.17 22.23c-2.128 0-4.256-.552-6.07-1.656l-.472-.236-4.572 1.182 1.182-4.493-.315-.473c-3.469-5.597-1.813-13.007 3.863-16.475 5.675-3.469 13.006-1.813 16.475 3.862 3.468 5.676 1.813 13.007-3.863 16.476-1.813 1.182-4.02 1.813-6.227 1.813zm6.938-8.75l-.867-.394s-1.262-.552-2.05-.946c-.079 0-.158-.08-.236-.08-.237 0-.395.08-.552.158 0 0-.08.08-1.183 1.34a.433.433 0 01-.394.237h-.079c-.079 0-.236-.079-.315-.158l-.394-.157c-.867-.394-1.655-.867-2.286-1.498-.158-.158-.394-.315-.552-.473-.552-.552-1.104-1.182-1.498-1.892l-.079-.158c-.078-.078-.078-.157-.157-.315 0-.157 0-.315.079-.394 0 0 .315-.394.551-.63.158-.158.237-.395.395-.553.157-.236.236-.551.157-.788-.079-.394-1.025-2.522-1.261-2.995-.158-.237-.315-.316-.552-.394h-.867c-.158 0-.315.078-.473.078l-.079.08c-.157.078-.315.236-.473.315-.157.157-.236.315-.394.473-.552.709-.867 1.576-.867 2.443 0 .63.158 1.261.394 1.813l.079.237a13.133 13.133 0 002.917 4.02l.315.315c.236.237.473.395.63.631 1.656 1.419 3.548 2.444 5.676 2.995.237.08.552.08.789.158h.788c.394 0 .867-.158 1.182-.315.237-.158.394-.158.552-.316l.158-.157c.157-.158.315-.237.473-.394.157-.158.315-.316.394-.473.157-.316.236-.71.315-1.104V27.4s-.079-.079-.236-.157z" fill="#fff"/></svg>