<svg width="23" height="23" fill="none" xmlns="http://www.w3.org/2000/svg"><path d="M7.5 11.25a3.75 3.75 0 117.5 0 3.75 3.75 0 01-7.5 0zm-2.027 0a5.777 5.777 0 1011.553 0 5.777 5.777 0 00-11.553 0zm10.432-6.006a1.35 1.35 0 102.701.001 1.35 1.35 0 00-2.7 0zm-9.2 15.163c-1.097-.05-1.693-.232-2.09-.387a3.495 3.495 0 01-1.293-.841 3.47 3.47 0 01-.842-1.293c-.154-.396-.337-.993-.387-2.09-.054-1.185-.065-1.542-.065-4.546 0-3.004.012-3.36.065-4.546.05-1.097.234-1.692.387-2.09.205-.525.448-.9.842-1.293a3.467 3.467 0 011.294-.842c.396-.154.992-.337 2.089-.387 1.186-.054 1.542-.065 4.545-.065s3.36.011 4.546.065c1.097.05 1.692.234 2.09.387.525.204.9.448 1.294.842.394.393.637.768.841 1.294.154.396.337.992.387 2.089.055 1.187.066 1.542.066 4.546 0 3.004-.011 3.36-.066 4.546-.05 1.097-.234 1.693-.387 2.09-.204.525-.448.9-.841 1.293a3.495 3.495 0 01-1.294.841c-.396.155-.993.337-2.09.387-1.185.055-1.542.066-4.546.066-3.004 0-3.36-.011-4.545-.066zM6.612.068c-1.198.055-2.016.245-2.73.523a5.518 5.518 0 00-1.994 1.297A5.497 5.497 0 00.591 3.881c-.278.715-.468 1.533-.523 2.73C.013 7.812 0 8.196 0 11.25s.013 3.439.068 4.638c.055 1.198.245 2.016.523 2.73.287.74.671 1.369 1.297 1.994a5.53 5.53 0 001.993 1.297c.716.278 1.533.468 2.73.523 1.201.054 1.584.068 4.639.068s3.439-.013 4.638-.068c1.198-.055 2.016-.245 2.73-.523a5.533 5.533 0 001.994-1.297 5.51 5.51 0 001.297-1.993c.278-.715.47-1.533.523-2.73.054-1.201.067-1.584.067-4.639s-.013-3.439-.067-4.638c-.055-1.198-.245-2.016-.523-2.73a5.533 5.533 0 00-1.297-1.994A5.505 5.505 0 0018.62.591c-.716-.278-1.534-.47-2.731-.523C14.689.014 14.306 0 11.251 0 8.196 0 7.812.013 6.61.068z" fill="#fff"/></svg>