<svg width="42" height="42" fill="none" xmlns="http://www.w3.org/2000/svg"><path d="M20.944 27.07c-5.938-2.375-11.876-8.907-8.313-14.25 1.98-2.97 6.532-2.97 8.24.119m.073 14.131c6.009-2.398 12.017-8.995 8.412-14.392-2.003-2.998-6.61-2.998-8.338.12" stroke="#000" stroke-width="1.5" stroke-linecap="round"/><path d="M9.889 34.75h.75v-.634l-.626-.105-.124.74zm0 5.694h-.75v1.385l1.16-.756-.41-.629zm8.518-5.555v-.75h-.223l-.186.122.41.628zM2.306 11.556a9.25 9.25 0 019.25-9.25v-1.5C5.619.806.806 5.619.806 11.556h1.5zm0 13.333V11.556h-1.5v13.333h1.5zm7.707 9.122c-4.374-.734-7.707-4.54-7.707-9.122h-1.5c0 5.327 3.874 9.748 8.959 10.601l.248-1.479zm.626 6.433v-5.693h-1.5v5.693h1.5zm7.359-6.183l-8.519 5.555.82 1.257 8.518-5.556-.82-1.256zm12.447-.122H18.407v1.5h12.038v-1.5zm9.25-9.25a9.25 9.25 0 01-9.25 9.25v1.5c5.937 0 10.75-4.813 10.75-10.75h-1.5zm0-13.333v13.333h1.5V11.556h-1.5zm-9.25-9.25a9.25 9.25 0 019.25 9.25h1.5c0-5.937-4.813-10.75-10.75-10.75v1.5zm-18.89 0h18.89v-1.5h-18.89v1.5z" fill="#000"/></svg>