<svg width="50" height="50" fill="none" xmlns="http://www.w3.org/2000/svg"><rect width="50" height="50" rx="25" fill="#000"/><path d="M12.463 29.305l3.602-2.848a3.769 3.769 0 012.388-.838c1.13 0 2.22.503 2.932 1.34.46.545.754.88.921 1.09.629-.042 2.053-.67 3.561-2.178 1.592-1.592 2.136-3.016 2.178-3.561-.167-.168-.544-.46-1.089-.922-1.592-1.34-1.801-3.686-.503-5.32l2.849-3.602c.754-.921 1.843-1.466 3.016-1.466.544 0 1.047.126 1.55.335 1.089.46 2.387 1.299 3.1 2.053 1.089 1.089 2.638 3.644.795 8.587-1.172 3.1-3.434 6.493-6.408 9.425-4.44 4.44-9.677 7.205-13.614 7.205-1.802 0-3.31-.587-4.357-1.634-.712-.712-1.55-2.01-2.052-3.1-.712-1.634-.252-3.477 1.13-4.566zm.754 3.728c.419.964 1.13 2.011 1.591 2.472.713.712 1.718 1.047 2.89 1.047 3.268 0 8.002-2.471 12.19-6.66 5.697-5.739 8.252-12.483 5.613-15.08-.46-.46-1.466-1.173-2.471-1.592a1.956 1.956 0 00-.712-.126c-.545 0-1.047.252-1.382.67l-2.849 3.603c-.586.754-.46 1.801.252 2.43a27.548 27.548 0 011.382 1.214c1.089 1.09.042 3.938-2.346 6.367-1.76 1.76-3.77 2.807-5.11 2.807-.503 0-.922-.126-1.215-.419a27.075 27.075 0 01-1.215-1.382 1.706 1.706 0 00-1.34-.629c-.377 0-.754.126-1.09.377l-3.602 2.849c-.67.46-.88 1.298-.586 2.052z" fill="#fff"/></svg>