<svg width="50" height="50" fill="none" xmlns="http://www.w3.org/2000/svg"><rect width="50" height="50" rx="25" fill="#419FD9"/><path fill-rule="evenodd" clip-rule="evenodd" d="M30.558 37.38c1.747.764 2.403-.838 2.403-.838l4.623-23.226c-.037-1.565-2.148-.619-2.148-.619L9.553 22.854s-1.238.437-1.129 1.201c.11.765 1.092 1.129 1.092 1.129l6.517 2.184s1.965 6.444 2.366 7.682c.364 1.201.691 1.237.691 1.237.365.146.692-.109.692-.109l4.223-3.822 6.553 5.023zm1.128-19.95s.91-.546.874 0c0 0 .146.073-.328.582-.436.437-10.739 9.684-12.122 10.922a.382.382 0 00-.182.327l-.4 3.422c-.073.364-.547.4-.656.073l-1.71-5.606a.536.536 0 01.218-.619l14.306-9.101z" fill="#fff"/></svg>