<svg width="166" height="46" fill="none" xmlns="http://www.w3.org/2000/svg"><path fill-rule="evenodd" clip-rule="evenodd" d="M0 0h26.56v8.4a13.023 13.023 0 00-10.063-4.75c-7.045 0-12.808 5.542-12.808 12.314 0 9.957 12.808 22.004 22.871 26.385V46H0V0zm26.56 42.35c10.063-4.382 22.871-16.43 22.871-26.386 0-6.772-5.763-12.313-12.808-12.313a13.02 13.02 0 00-10.063 4.75v33.948zm76.272-18.06h3.238V12.055h-3.238V24.29zm1.63-14.201c1.102 0 1.873-.7 1.873-1.77 0-1.048-.771-1.748-1.873-1.748-1.123 0-1.894.7-1.894 1.748 0 1.07.771 1.77 1.894 1.77zM88.658 28.988h3.237v-3.714l-.11-2.01c.948.852 1.983 1.332 3.062 1.332 2.71 0 5.242-2.425 5.242-6.62 0-3.758-1.806-6.226-4.846-6.226-1.321 0-2.599.699-3.634 1.573h-.066l-.242-1.268h-2.643v16.933zm5.462-7.035c-.66 0-1.454-.24-2.225-.918V15.66c.838-.852 1.586-1.267 2.423-1.267 1.696 0 2.445 1.29 2.445 3.627 0 2.666-1.145 3.933-2.643 3.933zm20.115 2.36c-.374.152-.903.283-1.674.283-2.246 0-3.039-1.463-3.039-3.736V6.855h3.238v14.136c0 .743.33.983.638.983.133 0 .221 0 .441-.043l.396 2.381zm7.388.283c3.084 0 5.925-2.36 5.925-6.423 0-4.064-2.841-6.423-5.925-6.423-3.083 0-5.924 2.36-5.924 6.423 0 4.064 2.841 6.423 5.924 6.423zm0-2.622c-1.673 0-2.621-1.485-2.621-3.801 0-2.294.948-3.802 2.621-3.802 1.674 0 2.622 1.508 2.622 3.802 0 2.316-.948 3.802-2.622 3.802zm14.695 2.688c-1.079 2.884-2.401 4.544-5.154 4.544-.727 0-1.211-.087-1.696-.24l.595-2.469c.22.066.573.153.859.153 1.255 0 1.96-.787 2.313-1.857l.22-.721-4.802-12.017h3.26l1.96 5.68c.253.737.475 1.513.701 2.301v.001l.001.002c.109.38.219.765.334 1.149h.11c.142-.566.291-1.144.439-1.72v-.001l.001-.002v-.002l.001-.005.001-.003c.148-.577.296-1.153.439-1.72l1.696-5.68h3.105l-4.383 12.607zm8.938-.066c1.409 0 2.643-.699 3.722-1.616h.088l.22 1.31h2.644v-7.144c0-3.54-1.608-5.397-4.736-5.397-1.938 0-3.7.721-5.154 1.617l1.167 2.12c1.146-.656 2.247-1.158 3.392-1.158 1.52 0 2.049.917 2.115 2.119-4.978.524-7.114 1.9-7.114 4.523 0 2.075 1.453 3.626 3.656 3.626zm1.057-2.512c-.947 0-1.63-.415-1.63-1.377 0-1.092 1.013-1.922 4.031-2.294v2.47c-.793.764-1.476 1.2-2.401 1.2zm12.154 2.206h-3.238V12.055h2.643l.243 1.617h.066c1.079-1.049 2.335-1.923 4.009-1.923 2.665 0 3.81 1.836 3.81 4.916v7.625h-3.238v-7.23c0-1.901-.528-2.557-1.74-2.557-1.013 0-1.652.481-2.555 1.377v8.411zm-95.139.263c1.278 0 2.511-.699 3.414-1.573h.088l.243 1.267h2.62V6.812h-3.215v4.305l.11 1.922c-.88-.808-1.74-1.332-3.128-1.332-2.665 0-5.176 2.446-5.176 6.423 0 4.02 1.983 6.423 5.044 6.423zm.837-2.643c-1.63 0-2.555-1.268-2.555-3.802 0-2.447 1.168-3.758 2.555-3.758.771 0 1.564.24 2.313.918v5.374c-.727.918-1.454 1.268-2.313 1.268zm8.999 2.337h3.238V16.95c.683-1.77 1.85-2.403 2.819-2.403.507 0 .859.065 1.3.196l.55-2.774c-.374-.153-.77-.262-1.453-.262-1.278 0-2.6.873-3.503 2.468h-.066l-.242-2.163h-2.643v12.235zm11.469-1.791c0 1.18-.86 2.097-2.027 2.097-1.145 0-2.004-.917-2.004-2.097 0-1.202.86-2.098 2.004-2.098 1.168 0 2.027.896 2.027 2.098zM60.764 39.429c1.458 0 2.48-1.13 2.48-2.936 0-1.807-1.022-2.906-2.48-2.906s-2.48 1.1-2.48 2.906 1.023 2.936 2.48 2.936zm0-.623c-1.046 0-1.727-.907-1.727-2.313 0-1.415.681-2.283 1.727-2.283 1.038 0 1.728.868 1.728 2.283 0 1.406-.69 2.313-1.728 2.313zm3.734.523h.697v-2.96c0-.423-.028-.852-.056-1.27a46.04 46.04 0 01-.031-.49h.031l.626 1.161 2.116 3.559h.753v-5.642h-.698v2.936c0 .48.038.99.073 1.473l.022.31h-.04l-.617-1.16-2.116-3.559h-.76v5.642zm9.695-.707c-.46.514-1.03.807-1.783.807-1.442 0-2.527-1.084-2.527-2.913 0-1.822 1.101-2.929 2.575-2.929.705 0 1.26.338 1.593.7l-.397.46c-.3-.314-.689-.537-1.188-.537-1.101 0-1.83.876-1.83 2.283 0 1.421.697 2.313 1.806 2.313.555 0 .975-.238 1.347-.63l.404.446zm2.967.807c1.458 0 2.48-1.13 2.48-2.936 0-1.807-1.022-2.906-2.48-2.906s-2.48 1.1-2.48 2.906 1.022 2.936 2.48 2.936zm0-.623c-1.046 0-1.727-.907-1.727-2.313 0-1.415.681-2.283 1.727-2.283 1.038 0 1.727.868 1.727 2.283 0 1.406-.689 2.313-1.727 2.313zm7.006.523h-3.273v-5.642h.737v5.035h2.536v.607zm2.945.1c1.457 0 2.48-1.13 2.48-2.936 0-1.807-1.023-2.906-2.48-2.906-1.458 0-2.48 1.1-2.48 2.906s1.022 2.936 2.48 2.936zm0-.623c-1.046 0-1.728-.907-1.728-2.313 0-1.415.682-2.283 1.728-2.283 1.037 0 1.727.868 1.727 2.283 0 1.406-.69 2.313-1.727 2.313zm7.813-.03c-.372.376-1.014.653-1.798.653-1.522 0-2.615-1.084-2.615-2.913 0-1.822 1.125-2.929 2.662-2.929a2.24 2.24 0 011.672.7l-.396.46c-.293-.299-.666-.537-1.26-.537-1.165 0-1.925.876-1.925 2.283 0 1.421.69 2.313 1.941 2.313.412 0 .816-.123 1.046-.33V37h-1.228v-.592h1.901v2.367zm1.382.553h.737v-5.642h-.737v5.642zm5.911-1.5c0 .892-.761 1.6-1.973 1.6a2.817 2.817 0 01-2.036-.838l.444-.484c.412.422.998.699 1.6.699.761 0 1.22-.369 1.22-.922 0-.577-.42-.761-.966-1l-.84-.353c-.539-.223-1.18-.623-1.18-1.445 0-.868.776-1.499 1.829-1.499.69 0 1.3.285 1.712.7l-.388.453c-.357-.323-.785-.53-1.324-.53-.657 0-1.085.323-1.085.83 0 .546.507.753.959.938l.832.346c.673.284 1.196.668 1.196 1.506zm2.173 1.5h.737v-5.035h1.759v-.607h-4.255v.607h1.759v5.035zm4.489-1.883h-2.029v-.538h2.029v.538zm1.146 1.883h.666v-3.12c0-.387-.036-.9-.066-1.342a28.565 28.565 0 01-.021-.319h.031l.46 1.284 1.101 2.928h.491l1.102-2.928.459-1.284h.032l-.001.014c-.04.491-.094 1.167-.094 1.646v3.12h.689v-5.64h-.887l-1.11 3.02-.198.588v.002l-.198.586h-.039a61.166 61.166 0 01-.412-1.176l-1.117-3.02h-.888v5.64zm8.015-5.058a46.061 46.061 0 01-.579 1.906l-.285.861h1.759l-.277-.86a48.274 48.274 0 01-.587-1.907h-.031zm-1.609 5.058h-.745l1.973-5.642h.816l1.973 5.642h-.776l-.555-1.722h-2.123l-.563 1.722zm4.837 0h.665v-3.12c0-.387-.035-.9-.065-1.342l-.001-.004v-.011l-.001-.012-.01-.146-.01-.146h.032l.459 1.284 1.102 2.928h.491l1.101-2.928.46-1.284h.031l-.001.014c-.039.49-.094 1.166-.094 1.646v3.12h.69v-5.64h-.888l-1.109 3.02-.198.588-.001.002c-.065.195-.13.39-.197.586h-.04c-.142-.392-.277-.784-.412-1.176l-1.117-3.02h-.887v5.64zm7.095 0h-.665v-5.642h.887l1.117 3.02.001.003c.134.391.269.782.411 1.174h.04l.198-.588.198-.588 1.109-3.02h.888v5.64h-.69v-3.12c0-.477.054-1.148.094-1.638v-.007l.001-.015h-.031l-.46 1.284-1.101 2.928h-.491l-1.102-2.928-.459-1.284h-.032l.008.12.013.198.001.001v.001c.03.442.065.954.065 1.34v3.12zm7.912.1c1.457 0 2.48-1.13 2.48-2.936 0-1.807-1.023-2.906-2.48-2.906-1.458 0-2.48 1.1-2.48 2.906s1.022 2.936 2.48 2.936zm0-.623c-1.046 0-1.728-.907-1.728-2.313 0-1.415.682-2.283 1.728-2.283 1.038 0 1.727.868 1.727 2.283 0 1.406-.689 2.313-1.727 2.313zm7.005.523h-3.272v-5.642h.737v5.035h2.535v.607zm2.945.1c1.458 0 2.48-1.13 2.48-2.936 0-1.807-1.022-2.906-2.48-2.906s-2.48 1.1-2.48 2.906 1.022 2.936 2.48 2.936zm0-.623c-1.046 0-1.727-.907-1.727-2.313 0-1.415.681-2.283 1.727-2.283 1.038 0 1.727.868 1.727 2.283 0 1.406-.689 2.313-1.727 2.313zm7.814-.03c-.373.376-1.014.653-1.799.653-1.521 0-2.614-1.084-2.614-2.913 0-1.822 1.125-2.929 2.662-2.929.808 0 1.339.354 1.672.7l-.397.46c-.293-.299-.665-.537-1.259-.537-1.165 0-1.926.876-1.926 2.283 0 1.421.69 2.313 1.941 2.313.412 0 .817-.123 1.046-.33V37h-1.228v-.592h1.902v2.367zm1.382.553h.737v-5.642h-.737v5.642zm5.91-1.5c0 .892-.76 1.6-1.972 1.6-.824 0-1.53-.323-2.037-.838l.444-.484c.412.422.998.699 1.601.699.76 0 1.22-.369 1.22-.922 0-.577-.42-.761-.967-1l-.84-.353c-.539-.223-1.18-.623-1.18-1.445 0-.868.776-1.499 1.83-1.499.689 0 1.299.285 1.711.7l-.388.453c-.356-.323-.784-.53-1.323-.53-.658 0-1.086.323-1.086.83 0 .546.508.753.959.938l.832.346c.674.284 1.196.668 1.196 1.506zm2.173 1.5h.737v-5.035H166v-.607h-4.255v.607h1.759v5.035z" fill="#fff"/></svg>